#!OML:ASF F:\VICON\USERDATA\INSTALL\rory3\rory3.ASF
:FULLY-SPECIFIED
:DEGREES
1989
root -2.36645 17.5476 4.18253 11.057 15.952 -717.839
lowerback 10.1731 2.30015 -0.398234
upperback 3.41641 3.08586 2.18036
thorax -2.28542 1.53469 2.11061
lowerneck -20.5006 6.63147 -5.12978
upperneck 31.5733 15.0437 -8.4426
head 14.8686 4.68499 0.235707
rclavicle 3.4191e-014 -1.19271e-014
rhumerus -30.8284 7.99431 -86.1276
rradius 45.2228
rwrist 10.0619
rhand -27.3537 5.22817
rfingers 7.12502
rthumb -0.761736 -24.7502
lclavicle 3.4191e-014 -1.19271e-014
lhumerus -33.6647 -11.2695 92.6374
lradius 62.3397
lwrist -7.17233
lhand -22.8921 21.1588
lfingers 7.12502
lthumb 3.54735 51.1091
rfemur -21.8018 -12.8731 28.8735
rtibia 39.4683
rfoot -28.6706 -11.0836
rtoes 7.3324
lfemur -34.7861 6.57431 -30.6341
ltibia 26.1132
lfoot 1.7922 0.523619
ltoes -5.84946
1990
root -2.37948 17.547 4.26261 10.958 16.8508 -717.9
lowerback 10.0804 2.20292 -0.392553
upperback 3.35371 2.95887 2.16691
thorax -2.2933 1.47246 2.11107
lowerneck -20.392 6.92154 -4.98068
upperneck 31.6741 15.5098 -8.61807
head 14.9408 4.876 0.227671
rclavicle -4.33351e-014 -4.05521e-014
rhumerus -30.5393 7.3807 -85.825
rradius 44.3409
rwrist 10.0644
rhand -27.4318 5.14967
rfingers 7.12502
rthumb -0.837134 -24.8284
lclavicle -4.33351e-014 -4.05521e-014
lhumerus -33.2421 -10.7189 92.208
lradius 61.0339
lwrist -6.79869
lhand -22.4678 21.4517
lfingers 7.12502
lthumb 3.95702 51.3947
rfemur -21.7365 -13.3487 29.0891
rtibia 40.0675
rfoot -28.6899 -11.1037
rtoes 6.97492
lfemur -34.3294 4.87013 -29.7628
ltibia 25.9866
lfoot 1.66099 1.18861
ltoes -1.94724
1991
root -2.39128 17.5468 4.34239 10.9447 17.6066 -717.913
lowerback 9.92872 2.1672 -0.457915
upperback 3.27067 2.90535 2.1335
thorax -2.29537 1.44666 2.12329
lowerneck -20.3025 7.1433 -4.82446
upperneck 31.751 15.8774 -8.80942
head 15.0084 5.0245 0.194769
rclavicle 1.15295e-014 2.78299e-014
rhumerus -30.332 6.66823 -85.4871
rradius 43.5506
rwrist 10.0659
rhand -27.661 5.1183
rfingers 7.12502
rthumb -1.05846 -24.8588
lclavicle 1.15295e-014 2.78299e-014
lhumerus -32.7053 -10.1229 91.8035
lradius 59.5816
lwrist -6.34623
lhand -22.06 21.4906
lfingers 7.12502
lthumb 4.35081 51.4259
rfemur -21.8661 -14.0275 29.2927
rtibia 40.8296
rfoot -28.4964 -11.2143
rtoes 5.54821
lfemur -34.0359 4.35017 -29.592
ltibia 26.0119
lfoot 1.30928 0.699568
ltoes -2.92831
1992
root -2.39947 17.5453 4.42225 10.8884 18.2573 -717.934
lowerback 9.73654 2.16713 -0.50959
upperback 3.26719 2.89943 2.10762
thorax -2.19427 1.44369 2.13307
lowerneck -20.6141 7.32888 -4.99683
upperneck 32.159 16.2709 -8.60731
head 15.2423 5.15366 0.394441
rclavicle -1.15295e-014 -2.14687e-014
rhumerus -30.0306 5.9832 -85.0837
rradius 42.733
rwrist 10.1741
rhand -27.7616 5.02012
rfingers 7.12502
rthumb -1.15563 -24.9565
lclavicle -1.15295e-014 -2.14687e-014
lhumerus -32.0489 -9.47799 91.4301
lradius 58.0683
lwrist -5.98198
lhand -21.7189 21.8812
lfingers 7.12502
lthumb 4.68017 51.8095
rfemur -22.0329 -14.8101 29.477
rtibia 41.7729
rfoot -28.086 -11.3591
rtoes 2.72337
lfemur -33.7149 4.21581 -29.5966
ltibia 26.1114
lfoot 0.975429 0.143828
ltoes -5.72418
1993
root -2.40744 17.5439 4.50102 10.7955 18.8014 -717.935
lowerback 9.58146 2.2143 -0.586093
upperback 3.28536 2.95298 2.05488
thorax -2.09346 1.47008 2.12126
lowerneck -21.1921 7.49279 -5.32215
upperneck 32.9719 16.6405 -7.98647
head 15.6566 5.26592 0.800217
rclavicle 8.74653e-015 3.4191e-014
rhumerus -29.6957 5.34302 -84.7257
rradius 41.7425
rwrist 10.42
rhand -27.9945 4.95819
rfingers 7.12502
rthumb -1.38063 -25.0171
lclavicle 8.74653e-015 3.4191e-014
lhumerus -31.3955 -8.81829 91.0389
lradius 56.4764
lwrist -5.70204
lhand -21.4341 22.2247
lfingers 7.12502
lthumb 4.95519 52.1468
rfemur -22.255 -15.471 29.5631
rtibia 42.91
rfoot -27.4626 -11.421
rtoes -0.407618
lfemur -33.3544 3.63349 -29.2922
ltibia 26.2028
lfoot 0.67889 0.0869966
ltoes -5.46652
1994
root -2.41638 17.5423 4.57676 10.736 19.2423 -717.917
lowerback 9.50076 2.31757 -0.669279
upperback 3.23272 3.07976 1.95232
thorax -2.10771 1.53364 2.04898
lowerneck -21.3273 7.63445 -5.39707
upperneck 33.4387 16.8845 -7.67264
head 15.8679 5.36221 0.999488
rclavicle 5.1684e-015 -2.22639e-014
rhumerus -29.5541 4.71847 -84.4192
rradius 40.814
rwrist 10.6854
rhand -28.4325 5.18088
rfingers 7.12502
rthumb -1.8036 -24.7912
lclavicle 5.1684e-015 -2.22639e-014
lhumerus -30.797 -8.0215 90.6238
lradius 54.7876
lwrist -5.68498
lhand -21.0217 22.8647
lfingers 7.12502
lthumb 5.35339 52.777
rfemur -22.5978 -16.0159 29.5542
rtibia 44.2166
rfoot -26.9154 -10.9967
rtoes -1.6438
lfemur -33.0385 2.95359 -28.8473
ltibia 26.2233
lfoot 0.449798 0.260989
ltoes -1.90232
